REM DIRINDEX 1\2,1\3,1\4,1\5
REM DIRNAME folder01,folder02,folder03,folder04,folder05
TITLE ""
FILE "1Q_t_1881-1890.mp3" MP3
  TRACK 01 AUDIO
    TITLE "3:cjc004_6551"
    INDEX 01 00:00:00
  TRACK 02 AUDIO
    TITLE "0:"
    INDEX 01 00:01:09
  TRACK 03 AUDIO
    TITLE "4:cjc004_6552"
    INDEX 01 00:01:34
  TRACK 04 AUDIO
    TITLE "0:"
    INDEX 01 00:03:00
  TRACK 05 AUDIO
    TITLE "5:cjc004_6553"
    INDEX 01 00:03:29
  TRACK 06 AUDIO
    TITLE "0:"
    INDEX 01 00:07:05
  TRACK 07 AUDIO
    TITLE "3:cjc004_6554"
    INDEX 01 00:07:58
  TRACK 08 AUDIO
    TITLE "0:"
    INDEX 01 00:08:64
  TRACK 09 AUDIO
    TITLE "4:cjc004_6555"
    INDEX 01 00:09:14
  TRACK 10 AUDIO
    TITLE "0:"
    INDEX 01 00:10:31
  TRACK 11 AUDIO
    TITLE "5:cjc004_6556"
    INDEX 01 00:10:53
  TRACK 12 AUDIO
    TITLE "0:"
    INDEX 01 00:15:28
  TRACK 13 AUDIO
    TITLE "3:cjc004_6557"
    INDEX 01 00:16:12
  TRACK 14 AUDIO
    TITLE "0:"
    INDEX 01 00:17:55
  TRACK 15 AUDIO
    TITLE "4:cjc004_6558"
    INDEX 01 00:18:09
  TRACK 16 AUDIO
    TITLE "0:"
    INDEX 01 00:19:28
  TRACK 17 AUDIO
    TITLE "5:cjc004_6559"
    INDEX 01 00:19:56
  TRACK 18 AUDIO
    TITLE "0:"
    INDEX 01 00:24:37
  TRACK 19 AUDIO
    TITLE "3:cjc004_6560"
    INDEX 01 00:25:15
  TRACK 20 AUDIO
    TITLE "0:"
    INDEX 01 00:26:36
  TRACK 21 AUDIO
    TITLE "4:cjc004_6561"
    INDEX 01 00:27:02
  TRACK 22 AUDIO
    TITLE "0:"
    INDEX 01 00:28:68
  TRACK 23 AUDIO
    TITLE "5:cjc004_6562"
    INDEX 01 00:29:15
  TRACK 24 AUDIO
    TITLE "0:"
    INDEX 01 00:33:34
  TRACK 25 AUDIO
    TITLE "3:cjc004_6563"
    INDEX 01 00:34:10
  TRACK 26 AUDIO
    TITLE "0:"
    INDEX 01 00:35:33
  TRACK 27 AUDIO
    TITLE "4:cjc004_6564"
    INDEX 01 00:35:57
  TRACK 28 AUDIO
    TITLE "0:"
    INDEX 01 00:37:14
  TRACK 29 AUDIO
    TITLE "5:cjc004_6565"
    INDEX 01 00:37:34
  TRACK 30 AUDIO
    TITLE "0:"
    INDEX 01 00:41:26
  TRACK 31 AUDIO
    TITLE "3:cjc004_6566"
    INDEX 01 00:42:00
  TRACK 32 AUDIO
    TITLE "0:"
    INDEX 01 00:43:25
  TRACK 33 AUDIO
    TITLE "4:cjc004_6567"
    INDEX 01 00:43:62
  TRACK 34 AUDIO
    TITLE "0:"
    INDEX 01 00:45:14
  TRACK 35 AUDIO
    TITLE "5:cjc004_6568"
    INDEX 01 00:45:37
  TRACK 36 AUDIO
    TITLE "0:"
    INDEX 01 00:50:17
  TRACK 37 AUDIO
    TITLE "3:cjc004_6569"
    INDEX 01 00:50:70
  TRACK 38 AUDIO
    TITLE "0:"
    INDEX 01 00:52:08
  TRACK 39 AUDIO
    TITLE "4:cjc004_6570"
    INDEX 01 00:52:32
  TRACK 40 AUDIO
    TITLE "0:"
    INDEX 01 00:53:53
  TRACK 41 AUDIO
    TITLE "5:cjc004_6571"
    INDEX 01 00:54:03
  TRACK 42 AUDIO
    TITLE "0:"
    INDEX 01 00:57:72
  TRACK 43 AUDIO
    TITLE "3:cjc004_6572"
    INDEX 01 00:58:52
  TRACK 44 AUDIO
    TITLE "0:"
    INDEX 01 00:59:71
  TRACK 45 AUDIO
    TITLE "4:cjc004_6573"
    INDEX 01 01:00:25
  TRACK 46 AUDIO
    TITLE "0:"
    INDEX 01 01:01:56
  TRACK 47 AUDIO
    TITLE "5:cjc004_6574"
    INDEX 01 01:02:06
  TRACK 48 AUDIO
    TITLE "0:"
    INDEX 01 01:05:54
  TRACK 49 AUDIO
    TITLE "3:cjc004_6575"
    INDEX 01 01:06:34
  TRACK 50 AUDIO
    TITLE "0:"
    INDEX 01 01:07:66
  TRACK 51 AUDIO
    TITLE "4:cjc004_6576"
    INDEX 01 01:08:17
  TRACK 52 AUDIO
    TITLE "0:"
    INDEX 01 01:09:50
  TRACK 53 AUDIO
    TITLE "5:cjc004_6577"
    INDEX 01 01:10:02
  TRACK 54 AUDIO
    TITLE "0:"
    INDEX 01 01:14:74
  TRACK 55 AUDIO
    TITLE "3:cjc004_6578"
    INDEX 01 01:15:50
  TRACK 56 AUDIO
    TITLE "0:"
    INDEX 01 01:17:02
  TRACK 57 AUDIO
    TITLE "4:cjc004_6579"
    INDEX 01 01:17:28
  TRACK 58 AUDIO
    TITLE "0:"
    INDEX 01 01:18:60
  TRACK 59 AUDIO
    TITLE "5:cjc004_6580"
    INDEX 01 01:19:07
  TRACK 60 AUDIO
    TITLE "0:"
    INDEX 01 01:23:22
